<svg width="3363" height="627" viewBox="0 0 3363 627" fill="none" xmlns="http://www.w3.org/2000/svg">
<path d="M617.164 27.6617C606.099 11.0647 587.043 0 565.528 0H62.0852C27.6617 0 0 27.6617 0 61.4704V565.528C0 599.337 27.6617 626.999 61.4705 626.999H167.2H264.323V596.263V569.831C235.432 584.584 204.697 593.805 172.117 596.263H137.079H62.0852C44.8734 596.263 31.3499 582.125 31.3499 565.528V61.4704C31.3499 44.2587 45.4882 30.7352 62.0852 30.7352H565.528C582.74 30.7352 596.264 44.8734 596.264 61.4704V84.8292V540.94V565.528V619.007C614.705 608.557 626.999 588.272 626.999 565.528V61.4704C626.999 49.1764 623.311 36.8823 617.164 27.6617Z" fill="white"/>
<path d="M301.201 596.265V627H338.083V596.265V519.427C326.404 529.877 314.11 539.712 301.201 548.318V596.265Z" fill="white"/>
<path d="M374.967 596.265V627H411.849V596.265V439.516C400.17 454.883 387.876 469.636 374.967 483.16V596.265Z" fill="white"/>
<path d="M448.733 596.264V626.999H485.616V596.264V327.638C473.936 347.923 461.642 368.208 448.733 387.879V596.264Z" fill="white"/>
<path d="M522.499 258.177V596.265V627H559.381V596.265V178.266C548.317 204.083 536.023 231.13 522.499 258.177Z" fill="white"/>
<path d="M892.998 547.7V508.535H957.27V116.89H892.998V77.7256H1063.94C1122.86 77.7256 1168.38 93.5779 1200.97 124.35C1233.55 155.588 1250.06 204.078 1250.06 269.818V356.54C1250.06 422.28 1233.55 470.769 1200.97 501.542C1168.38 532.314 1122.41 547.7 1063.94 547.7H892.998ZM998.332 509.001H1063.94C1111.25 509.001 1146.96 497.345 1171.95 473.567C1196.95 449.788 1209.45 411.556 1209.45 358.871V267.953C1209.45 214.801 1196.95 176.103 1171.95 152.791C1146.96 129.479 1111.25 117.356 1063.94 117.356H998.332V509.001Z" fill="#FBFBFA"/>
<path d="M1342.9 547.7V77.7256H1614.71V116.89H1383.96V292.664H1596.86V331.829H1383.96V509.001H1617.39V548.166H1342.9V547.7Z" fill="#FBFBFA"/>
<path d="M1854.39 557.023C1822.26 557.023 1793.69 550.962 1768.25 539.306C1742.81 527.65 1723.17 509.466 1708.44 484.755C1693.71 460.511 1686.57 429.272 1686.57 391.973V379.384H1727.64V391.973C1727.64 435.334 1739.69 467.504 1763.34 488.485C1787 509.466 1817.35 519.724 1854.39 519.724C1891.89 519.724 1920.45 510.865 1940.54 492.682C1960.62 474.498 1970.89 451.186 1970.89 423.211C1970.89 404.561 1966.42 389.175 1957.5 377.986C1948.57 366.796 1936.52 357.471 1920.9 350.477C1905.28 343.483 1886.98 337.422 1866.44 331.827L1825.38 321.104C1800.83 314.576 1778.96 306.184 1759.77 295.927C1740.58 285.669 1725.4 272.614 1714.25 256.296C1703.09 239.977 1697.73 218.996 1697.73 193.353C1697.73 167.709 1703.98 145.796 1716.48 126.68C1728.97 108.03 1746.38 93.5766 1768.7 83.3192C1791.01 73.0619 1816.9 68.3994 1846.36 68.3994C1875.82 68.3994 1902.6 73.9943 1926.25 84.718C1949.91 95.4416 1969.1 111.294 1982.94 132.275C1996.77 153.256 2003.91 179.366 2003.91 210.604V242.308H1962.85V210.604C1962.85 185.893 1957.5 165.844 1947.23 150.925C1936.96 135.539 1923.13 124.349 1905.28 117.355C1887.87 110.361 1867.78 106.631 1846.36 106.631C1815.12 106.631 1789.23 114.091 1768.7 129.011C1748.17 143.931 1738.35 165.378 1738.35 193.819C1738.35 212.469 1742.36 227.389 1750.84 238.579C1759.33 249.768 1770.93 258.627 1786.11 265.621C1801.28 272.148 1819.13 278.209 1839.66 283.804L1880.73 294.528C1904.38 300.123 1925.81 308.049 1945.45 317.84C1965.08 327.631 1981.15 340.686 1993.2 357.471C2005.25 374.256 2011.06 396.169 2011.06 423.677C2011.06 451.186 2004.36 474.498 1991.42 495.013C1978.47 515.061 1960.17 530.914 1936.52 541.637C1913.76 551.895 1886.08 557.023 1854.39 557.023Z" fill="#FBFBFA"/>
<path d="M2063.28 547.7L2210.57 77.7256H2283.76L2431.05 547.7H2388.21L2349.38 422.746H2144.96L2106.57 547.7H2063.28ZM2156.56 384.048H2337.77L2251.18 103.369H2243.6L2156.56 384.048Z" fill="#FBFBFA"/>
<path d="M2504.25 547.7V77.7256H2771.61V116.89H2545.32V292.664H2752.86V331.829H2545.32V548.166H2504.25V547.7Z" fill="#FBFBFA"/>
<path d="M2839.9 547.7V77.7256H2924.7V547.7H2839.9Z" fill="white"/>
<path d="M2978.7 547.7L3096.98 77.7256H3244.71L3362.99 547.7H3275.51L3250.96 444.194H3090.28L3065.74 547.7H2978.7ZM3110.37 362.601H3231.32L3176.43 133.675H3164.82L3110.37 362.601Z" fill="white"/>
</svg>
