<svg width="848" height="280" viewBox="0 0 848 280" fill="none" xmlns="http://www.w3.org/2000/svg">
<path d="M0.100187 139.4C0.100187 112.4 0.200187 85.4 0.000187115 58.4C0.000187115 49.7 3.50019 43.5 11.0002 39.2C32.2002 27.1 53.2002 14.8 74.4002 2.7C80.7002 -0.9 87.2002 -0.9 93.4002 2.7C128.8 23.1 164.2 43.5 199.6 64C211.1 70.6 222.5 77.5 234.2 83.9C242.8 88.6 246.9 95.3 246.8 105.3C246.5 128.6 246.6 151.9 246.7 175.3C246.7 183.7 243.4 190 236.1 194.2C188.6 221.6 141.1 249 93.6002 276.4C87.5002 279.9 81.1002 280.2 75.0002 276.8C53.6002 264.7 32.4002 252.4 11.1002 240.1C3.30019 235.5 -0.0998129 228.9 0.000187115 219.8C0.200187 193 0.100187 166.2 0.100187 139.4ZM7.10019 143.3C7.10019 169.6 7.10019 196 7.00019 222.3C7.00019 226.5 8.20019 229.8 11.9002 231.9C31.7002 243.3 51.4002 254.7 71.2002 266C77.7002 269.7 81.4002 267.2 81.4002 259.8C81.4002 209.1 81.4002 158.5 81.5002 107.8C81.5002 98.6 77.3002 92.3 69.7002 87.9C52.8002 78.1 35.6002 68.6 18.9002 58.3C11.5002 53.8 6.70019 57.5 6.90019 65.3C7.30019 91.3 7.10019 117.3 7.10019 143.3ZM82.0002 87.1C87.8002 87.1 92.0002 86.3 95.8002 84.1C113.2 74.1 130.7 64 148.1 53.9C154.5 50.2 154.5 45.5 148.2 41.9C130.1 31.4 111.9 21 93.8002 10.4C86.9002 6.4 80.5002 6.5 73.6002 10.6C55.7002 21.2 37.6002 31.5 19.6002 41.8C13.4002 45.4 13.4002 50.1 19.6002 53.7C35.8002 63.1 52.1002 72.6 68.4002 81.9C73.1002 84.7 77.7002 87.4 82.0002 87.1ZM239.9 133.9C239.9 122.8 239.9 111.6 239.9 100.5C239.9 96.7 238.5 93.9 235.1 91.9C215.2 80.5 195.4 69.1 175.5 57.7C169.5 54.2 165.1 56.8 165.1 63.8C165.1 78.3 165.1 92.8 165.1 107.2C165.1 109.3 165.5 111 166.6 112.9C173.5 124.7 180.2 136.5 187 148.3C188.1 150.2 189.2 151.9 191.2 153C203.3 159.9 215.4 166.9 227.5 173.8C234.7 177.9 239.9 174.7 239.9 166.4C240 155.6 239.9 144.8 239.9 133.9ZM86.1002 137.5C86.1002 147.2 86.1002 156.8 86.1002 166.5C86.2002 175.2 91.2002 178.1 98.8002 173.8C110.9 166.9 122.9 159.8 135 152.9C136.8 151.9 138.1 150.6 139.1 148.8C145.7 137.1 152.5 125.5 159.2 113.9C160.3 112 160.8 110 160.8 107.8C160.7 93.8 160.8 79.8 160.8 65.8C160.8 57.7 155.8 54.8 148.6 58.8C133 67.7 117.6 77.1 101.8 85.5C90.2002 91.7 85.6002 101 85.9002 113.6C86.2002 121.5 86.1002 129.5 86.1002 137.5ZM164.1 226.6C164.6 226.4 166.1 226 167.3 225.3C187.9 213.4 208.4 201.6 229 189.6C234.4 186.4 234.4 182.9 228.9 179.7C216 172.2 203 164.8 190.1 157.2C187.9 155.9 186.4 156 184.3 157.4C178.2 161.5 171.9 165.2 165.9 169.3C163.8 170.7 162.3 170.6 160.2 169.3C154 165.2 147.5 161.3 141.3 157.2C139.3 155.9 138 155.9 136 157.1C123.3 164.6 110.4 171.9 97.6002 179.3C91.7002 182.7 91.6002 187.5 97.4002 190.6C117.9 201.5 137.6 213.8 157.9 225.1C159.7 225.9 161.2 226.9 164.1 226.6ZM86.1002 230.4C86.1002 239.9 86.0002 249.4 86.1002 258.8C86.2002 265.4 91.7002 268.7 97.4002 265.4C113.7 256.1 130 246.8 146.2 237.4C153.1 233.4 153 227.1 146.1 223.1C130.1 213.9 114.2 204.7 98.2002 195.5C91.2002 191.5 86.1002 194.4 86.0002 202.4C86.0002 211.8 86.1002 221.1 86.1002 230.4ZM160.9 164.8C160.9 157.2 160.9 150.3 160.9 142.8C154.7 146.4 148.9 149.7 142.7 153.2C149 157.3 154.7 160.9 160.9 164.8ZM165.3 143.6C165.3 150.8 165.3 157.5 165.3 165C171.5 161 177.2 157.4 183.3 153.5C177.5 150.1 172.4 147.1 167.2 144.2C166.8 143.8 166.3 143.8 165.3 143.6ZM165.3 118.6C164.5 138.8 165.7 140.8 181.3 146.5C176.1 137.4 171 128.6 165.3 118.6ZM160 120.5C157.5 124.7 155 128.9 152.6 133.2C150.2 137.3 147.9 141.5 145.3 146C159.4 141.6 161.2 138.6 160 120.5Z" fill="white"/>
<path d="M351.3 241.9C328.7 241.9 306 241.8 283.4 242C279.6 242 278.2 241.2 278.2 237.1C278.4 212.1 278.4 187.1 278.2 162.2C278.2 158.7 279.1 157.7 282.6 157.7C327.2 157.8 371.9 157.8 416.5 157.8C422.3 157.8 424.2 159.9 424.2 165.6C424.2 189.4 424.1 213.2 424.3 237C424.3 241.1 423 242 419.2 242C396.6 241.8 374 241.9 351.3 241.9ZM368.6 225.3C366.5 218.8 364.3 212.4 362.4 205.9C362 204.7 360.5 203.1 362.1 201.8C367.6 197.7 367.4 191.8 367.1 186C366.8 178.7 362.6 174.3 355.2 173.8C351.4 173.5 347.5 173.9 343.7 173.6C340.5 173.4 339.7 174.8 339.8 177.7C339.9 192.5 339.9 207.3 339.8 222.1C339.8 226.1 342.1 225.6 344.7 225.7C347.5 225.9 349.1 225.3 348.9 222C348.7 217.4 348.9 212.7 348.8 208C348.8 206.2 348.9 204.6 351.1 204.2C353.6 203.7 353.7 205.5 354.1 207.2C355.2 211 356.3 214.8 357.5 218.6C359.9 226.3 359.9 226.3 368.6 225.3ZM377.2 199.3C377.2 204.1 376.9 209 377.2 213.8C377.8 224.7 386.8 229.6 396.1 224.1C397.7 223.1 398.6 222.8 399.6 224.6C400.4 226 401.8 226.1 403.1 225.6C404.6 225.1 404.2 223.7 404.2 222.6C404.3 218.3 404.3 213.9 404.2 209.6C403.9 198.1 406.7 199.8 393.7 199.7C393.2 199.7 392.7 199.7 392.2 199.7C390.8 199.7 390 200.4 390 201.8C390 203.4 389.2 206 391 206.2C397.6 206.9 394.8 211.6 394.8 214.8C394.8 217.2 392.9 218.7 390.3 218.5C388 218.4 386.4 216.9 386.3 214.7C386.1 204.6 386.1 194.4 386.2 184.2C386.2 182.3 387.7 180.9 389.8 180.7C391.9 180.5 393.3 181.2 394.2 183.2C394.8 184.6 395 186.1 395 187.6C394.8 190.7 396.9 190.6 399 190.5C401.1 190.4 403.8 191.1 403.8 187.7C403.9 180.3 399.8 173.6 392.1 172.7C384.2 171.8 377.5 177 377.1 184.5C377 189.6 377.2 194.4 377.2 199.3ZM314.9 173.9C312.8 174.2 309.8 172.4 309 176.8C306.3 192.2 303.3 207.5 300.4 222.8C300.1 224.2 300 225.3 301.9 225.8C306.2 226.9 308.4 225.4 309.2 221C309.8 217.6 309 213.1 315.3 213.8C318.8 214.2 320.5 214.8 320.5 218.4C320.5 220 320.8 221.7 321.3 223.3C322.3 227.2 325.6 225.5 328 225.6C330.8 225.7 330 223.6 329.7 222C327.1 207.8 324.4 193.6 321.9 179.4C321.2 175.5 320.2 172.2 314.9 173.9Z" fill="#84A8DA"/>
<path d="M663.4 100.5C663.4 87.4001 663.6 74.3001 663.3 61.3001C663.2 56.5001 664.4 54.5001 669.3 55.3001C670.6 55.5001 672 55.4001 673.3 55.3001C675.7 55.1001 676.9 55.8001 676.9 58.6001C676.8 84.6001 676.8 110.6 676.9 136.6C676.9 139.3 675.9 139.8 673.4 139.9C664.3 140.1 664.3 140.2 661.3 131.7C656.6 118.4 652 105.1 647.3 91.8001C647 91.1001 646.6 90.4001 645.5 89.7001C645.5 95.9001 645.5 102 645.5 108.2C645.5 117.4 645.4 126.5 645.6 135.7C645.7 138.7 645.1 140 641.6 140C632.4 139.8 632.4 140 632.4 130.9C632.4 107.2 632.5 83.6001 632.3 59.9001C632.3 56.2001 633.2 55.1001 637 55.2001C645.8 55.5001 645.8 55.2001 648.7 63.3001C653 75.0001 657.2 86.7001 661.5 98.4001C661.8 99.3001 662.3 100 662.7 100.9C662.8 100.6 663.1 100.5 663.4 100.5Z" fill="white"/>
<path d="M600.3 101.1C600.3 87.5999 600.5 74.0999 600.2 60.6999C600.1 56.2999 601.2 54.4999 605.7 55.1999C607 55.3999 608.4 55.3999 609.7 55.1999C612.4 54.8999 613.5 55.6999 613.5 58.6999C613.4 84.6999 613.4 110.6 613.5 136.6C613.5 138.9 612.9 139.7 610.5 139.8C601.3 140.2 601.2 140.3 598.1 131.4C593.1 117.4 588.2 103.3 582.4 89.3C582.3 90.5 582.2 91.6 582.2 92.8C582.2 107 582.1 121.1 582.3 135.3C582.3 138.6 581.7 139.9 578 139.9C569.1 139.7 569.1 139.9 569.1 131.1C569.1 107.5 569.2 83.7999 569 60.1999C569 56.2999 570 54.6999 573.9 55.2999C575.2 55.4999 576.6 55.4999 577.9 55.2999C581.5 54.7999 583 56.3999 584.2 59.7999C589 73.6999 594.3 87.3999 599.3 101.2C599.7 101.1 600 101.1 600.3 101.1Z" fill="white"/>
<path d="M278.5 97.3001C278.5 84.6001 278.6 72.0001 278.4 59.4001C278.3 56.1001 279.4 55.1001 282.7 55.2001C289 55.4001 295.4 55.0001 301.7 55.4001C314.7 56.3001 321.2 61.7001 322.4 74.5001C323.9 90.2001 324.2 106.1 322.2 121.8C320.7 133.4 313.5 139.2 301.8 139.7C295.3 139.9 288.8 139.6 282.3 139.9C279 140 278.4 138.7 278.5 135.8C278.6 123 278.5 110.2 278.5 97.3001ZM293.1 97.1001C293.1 104.9 293.1 112.7 293.1 120.5C293.1 128 295 129.3 302.5 127.2C307.6 125.7 308.3 121.7 308.3 117.4C308.4 104.3 308.4 91.1001 308.3 78.0001C308.2 69.7001 305.5 67.3001 297 67.3001C294 67.3001 293 68.0001 293.1 71.2001C293.3 79.8001 293.1 88.5001 293.1 97.1001Z" fill="white"/>
<path d="M552.8 97.3999C552.8 104.6 552.9 111.7 552.8 118.9C552.7 132.2 544.8 140.5 532.1 140.9C517.4 141.3 508.8 134.1 508.4 120.1C507.9 105.1 507.8 90.1999 508.4 75.1999C509.1 57.0999 528.4 47.7999 543.8 57.5999C550.3 61.7999 552.6 68.1999 552.8 75.4999C553 82.7999 552.8 90.0999 552.8 97.3999ZM538.2 96.9999C538.2 89.6999 538.3 82.2999 538.1 74.9999C538 69.0999 535.6 66.6999 530.5 66.7999C525.4 66.7999 523.1 69.2999 523 75.1999C522.9 89.9999 522.9 104.8 523 119.7C523 125.8 525.2 128 530.4 128.1C535.9 128.2 538 125.9 538.1 119.5C538.3 112 538.2 104.5 538.2 96.9999Z" fill="white"/>
<path d="M764 97.7001C764 105 763.9 112.4 764 119.7C764.1 125.5 766.2 127.9 770.9 128.1C776.2 128.3 778.2 126.2 778.6 120.1C778.6 119.9 778.6 119.8 778.6 119.6C779.1 109.6 779.1 109.8 788.9 109.6C792.1 109.6 793.4 110.4 793 113.7C792.7 117.2 793.1 120.8 792.5 124.2C790.4 135.9 781.8 141.7 768.6 140.9C757.2 140.2 749.5 132.3 749.2 120.2C748.9 105.2 748.9 90.2001 749.2 75.2001C749.4 62.3001 757.8 54.4001 770.9 54.1001C783 53.8001 791.6 61.7001 792.8 74.0001C793.7 83.6001 793.7 83.4001 784.3 83.7001C780 83.8001 777.6 83.0001 778.5 78.1001C778.6 77.3001 778.4 76.4001 778.3 75.6001C777.5 69.1001 775.1 66.4001 770.4 66.8001C765.9 67.2001 763.9 70.0001 763.8 76.2001C764 83.4001 764 90.6001 764 97.7001Z" fill="white"/>
<path d="M450.1 97.4001C450.1 89.7001 450 82.1001 450.1 74.4001C450.4 62.4001 458 54.9 470.8 54C481.9 53.2 491 60.2 493.1 71.2C493.1 71.4 493.1 71.5 493.2 71.7C495.3 83.3 493.1 85.4 481.5 83.6C479.4 83.3 479.2 82.3 479.2 80.6C479.2 78.3 479.4 75.9 479 73.6C478.3 69.7 476.3 66.7001 471.8 66.8001C467.4 66.9001 465 69.3 464.9 73.7C464.4 89.7 464.3 105.6 465 121.6C465.2 126.3 468 128.3 472.7 128.1C477.4 127.9 479.1 125.3 479.3 121.1C479.3 120.8 479.3 120.4 479.3 120.1C479.6 108.9 479.6 108.9 491 109.6C493 109.7 494.1 110.1 494 112.4C493.9 117.2 494.1 122.1 492.8 126.8C489.9 136.9 480.5 142.2 468.3 140.7C457.8 139.4 450.6 131.9 450.3 121.4C449.9 113.4 450.1 105.4 450.1 97.4001Z" fill="white"/>
<path d="M695.1 97.2001C695.1 84.5001 695.2 71.9001 695 59.2001C695 56.3001 695.6 55.1001 698.8 55.2001C709.3 55.4001 719.8 55.4001 730.3 55.2001C733.5 55.1001 734.1 56.3001 734.1 59.3001C734.1 67.9001 734.2 67.9001 725.5 67.9001C721.7 67.9001 717.8 68.1001 714 67.9001C711 67.7001 709.4 68.4001 709.7 71.9001C710 76.7001 709.9 81.6001 709.7 86.4001C709.6 88.9001 710.4 90.0001 713.1 89.9001C717.3 89.7001 721.4 89.9001 725.6 89.8001C727.8 89.7001 728.3 90.6001 728.5 92.7001C729.2 102.5 729.3 102.5 719.5 102.5C709.8 102.5 709.6 102.5 709.8 112.1C709.9 117 707.6 123.6 710.9 126.4C713.8 128.8 720.1 127.1 724.9 127.2C725.4 127.2 725.9 127.2 726.4 127.2C736.6 127.2 736.5 127.2 735.6 137.2C735.4 139.4 734.7 140 732.6 140C721.1 139.9 709.6 139.8 698.1 140C694.6 140.1 695 138 695 135.8C695.1 122.8 695.1 110 695.1 97.2001Z" fill="white"/>
<path d="M337 97.4C337 84.9 337.2 72.4 336.9 60C336.8 55.8 338.2 55.1 342 55.2C351.8 55.4 361.6 55.4 371.5 55.2C374.9 55.1 376.1 56 376 59.6C375.8 67.9 376 67.9 367.6 67.9C363.4 67.9 359.3 68 355.1 67.9C352.7 67.8 351.4 68.3 351.4 71.1C351.6 76.3 351.5 81.4 351.4 86.6C351.4 88.9 352.1 89.9 354.5 89.8C357.3 89.6 360.2 89.6 363 89.8C365.4 90 369 88.3 369.8 90.8C370.9 93.9 370.2 97.7 370 101.2C369.9 102.8 368.3 102.4 367.2 102.4C363 102.5 358.9 102.5 354.7 102.4C352.4 102.3 351.4 103.2 351.5 105.6C351.6 111.8 351.6 117.9 351.5 124.1C351.5 126.6 352.5 127.2 354.8 127.1C361.1 127 367.5 127.2 373.8 127C376.5 126.9 377.6 127.5 377.7 130.5C378 139.9 378.1 139.9 368.8 139.9C359.6 139.9 350.5 139.7 341.3 140C337.7 140.1 336.9 138.9 337 135.5C337.1 122.8 337 110.1 337 97.4Z" fill="white"/>
<path d="M412.6 113.6C416 94.3 419.2 76.4 422.3 58.6C422.7 56.3 423.5 55.3 426.1 55.1C437.4 54.6 437.4 54.5 435.1 65.6C430.2 89.2 425.1 112.8 420.3 136.4C419.7 139.2 418.7 139.7 416.1 139.8C405.1 139.9 405.2 140 402.9 129.1C398.1 106.2 393.3 83.2 388.3 60.3C387.5 56.5 387.9 55 392.3 55.1C401.5 55.4 401.5 55.1 403.2 64.2C405.8 78.8 408.5 93.3 411.1 107.9C411.5 109.4 411.9 110.8 412.6 113.6Z" fill="white"/>
<path d="M818.5 103.7C818.5 93 818.4 82.4 818.6 71.8C818.6 68.7 817.7 67.6 814.6 67.9C813.1 68.1 811.6 67.7 810.1 68C805.6 68.7 804.1 67 804.4 62.4C804.9 54.3 803.5 55.4 811.8 55.4C822.1 55.3 832.4 55.5 842.8 55.3C846.2 55.2 847.3 56.1 847.2 59.7C847 68 847.2 68.4 838.9 67.9C834 67.6 832.9 69.2 833 73.9C833.3 94.5 833.1 115.2 833.2 135.8C833.2 139 832.5 140 829.1 140C818.5 139.9 818.5 140.1 818.5 129.3C818.5 120.7 818.5 112.2 818.5 103.7Z" fill="white"/>
<path d="M7.09997 143.3C7.09997 117.3 7.39997 91.3 6.89997 65.3C6.79997 57.5 11.6 53.8 18.9 58.3C35.6 68.6 52.8 78 69.7 87.9C77.3 92.3 81.5 98.7 81.5 107.8C81.4 158.5 81.5 209.1 81.4 259.8C81.4 267.2 77.7 269.6 71.2 266C51.4 254.8 31.7 243.3 11.9 231.9C8.09997 229.7 6.89997 226.5 6.99997 222.3C7.09997 196 6.99997 169.6 7.09997 143.3Z" fill="#84A8DA"/>
<path d="M82 87.1C77.7 87.4 73.1 84.7 68.4 82C52.1 72.6 35.9 63.2 19.6 53.8C13.3 50.2 13.3 45.4 19.6 41.9C37.6 31.5 55.7 21.2 73.6 10.7C80.5 6.70002 86.9 6.50002 93.8 10.5C111.9 21 130.1 31.4 148.2 41.9C154.5 45.6 154.4 50.2 148.1 53.9C130.7 64 113.3 74.1 95.8 84.1C92 86.3 87.8 87.2 82 87.1Z" fill="#E2B22F"/>
<path d="M86.1001 230.4C86.1001 221.1 86.0001 211.8 86.1001 202.5C86.2001 194.4 91.3001 191.5 98.3001 195.6C114.3 204.8 130.3 214 146.2 223.2C153.1 227.2 153.2 233.5 146.3 237.5C130.1 247 113.8 256.2 97.5001 265.5C91.8001 268.7 86.3001 265.5 86.2001 258.9C86.0001 249.4 86.1001 239.9 86.1001 230.4Z" fill="#E084A4"/>
<path d="M368.6 225.3C359.9 226.3 359.9 226.3 357.6 218.7C356.4 214.9 355.3 211.1 354.2 207.3C353.7 205.7 353.6 203.9 351.2 204.3C349 204.7 348.9 206.3 348.9 208.1C348.9 212.8 348.7 217.4 349 222.1C349.2 225.4 347.6 226 344.8 225.8C342.3 225.7 339.9 226.1 339.9 222.2C340.1 207.4 340 192.6 339.9 177.8C339.9 174.9 340.7 173.5 343.8 173.7C347.6 173.9 351.5 173.6 355.3 173.9C362.7 174.4 366.8 178.7 367.2 186.1C367.5 192 367.6 197.8 362.2 201.9C360.5 203.2 362.1 204.7 362.5 206C364.3 212.4 366.5 218.8 368.6 225.3ZM348.9 188.8C348.9 190 348.8 191.1 348.9 192.3C349.1 193.8 348 195.9 350.1 196.6C352 197.2 354.2 197.3 355.9 196.1C359.1 193.7 358 190.2 358.1 186.9C358.2 184.3 357 182.4 354.7 181.3C351 179.6 349 181.1 348.9 185.3C348.9 186.5 348.9 187.6 348.9 188.8Z" fill="#FCFCFD"/>
<path d="M377.2 199.3C377.2 194.5 377 189.6 377.2 184.8C377.6 177.2 384.2 172 392.2 173C399.9 173.9 404 180.6 403.9 188C403.8 191.3 401.2 190.7 399.1 190.8C397 190.9 394.9 191 395.1 187.9C395.2 186.4 395 185 394.3 183.5C393.4 181.5 392 180.8 389.9 181C387.7 181.2 386.3 182.5 386.3 184.5C386.2 194.6 386.2 204.8 386.4 215C386.4 217.2 388.1 218.7 390.4 218.8C392.9 218.9 394.9 217.4 394.9 215.1C394.9 211.9 397.7 207.2 391.1 206.5C389.3 206.3 390.1 203.7 390.1 202.1C390.1 200.7 391 200 392.3 200C392.8 200 393.3 200 393.8 200C406.8 200.2 404 198.4 404.3 209.9C404.4 214.2 404.3 218.6 404.3 222.9C404.3 224 404.7 225.4 403.2 225.9C401.8 226.4 400.4 226.3 399.7 224.9C398.7 223 397.8 223.4 396.2 224.4C386.9 229.9 377.9 225 377.3 214.1C376.9 208.9 377.2 204.1 377.2 199.3Z" fill="#FCFCFD"/>
<path d="M314.9 173.9C320.3 172.2 321.2 175.5 321.9 179.5C324.4 193.7 327.1 207.9 329.7 222.1C330 223.7 330.8 225.8 328 225.7C325.6 225.6 322.4 227.4 321.3 223.4C320.9 221.8 320.6 220.1 320.5 218.5C320.5 214.9 318.7 214.2 315.3 213.9C309 213.2 309.8 217.8 309.2 221.1C308.4 225.5 306.2 227 301.9 225.9C300 225.4 300.1 224.2 300.4 222.9C303.3 207.6 306.3 192.3 309 176.9C309.7 172.4 312.7 174.2 314.9 173.9ZM315.6 185.9C315.3 185.9 315 185.9 314.7 185.8C313.8 191.4 313 197 312.1 202.5C311.7 205 312.1 206.6 315.2 206.6C318.2 206.5 318.3 204.8 318 202.6C317.3 197.1 316.4 191.5 315.6 185.9Z" fill="#FCFCFD"/>
<path d="M138 160.6C144.5 164.7 151.3 168.5 157.5 173.1C161.7 176.2 164.7 176 168.8 173.1C174.8 168.7 181.3 165 187.5 161C188.2 161.7 188.1 162.3 187.6 162.9C180.1 173.9 172.6 184.8 165.1 195.8C163.7 197.9 162.9 198.8 161 196C153.2 184.4 145.2 172.8 137.3 161.3C137.7 161 137.9 160.8 138 160.6ZM151.8 175C154.8 179.5 157.6 183.6 160.6 188.1C161.8 179.3 160.9 177.9 151.8 175ZM174.8 174.7C164.8 178.7 164.5 179.1 165.7 188C168.7 183.5 171.5 179.5 174.8 174.7Z" fill="white"/>
<path d="M348.9 188.8C348.9 187.6 348.9 186.5 348.9 185.3C349 181.1 351 179.6 354.7 181.3C357 182.4 358.2 184.2 358.1 186.9C358 190.1 359 193.7 355.9 196.1C354.2 197.3 352 197.2 350.1 196.6C348 195.9 349 193.8 348.9 192.3C348.8 191.1 348.9 189.9 348.9 188.8Z" fill="#84A8DA"/>
<path d="M315.6 185.9C316.4 191.5 317.3 197.1 318.1 202.7C318.4 204.8 318.3 206.6 315.3 206.7C312.1 206.8 311.8 205.1 312.2 202.6C313.1 197 313.9 191.4 314.8 185.9C315 185.9 315.3 185.9 315.6 185.9Z" fill="#84A8DA"/>
</svg>
