<svg width="2319" height="537" viewBox="0 0 2319 537" fill="none" xmlns="http://www.w3.org/2000/svg">
<path d="M686.732 454.626C655.416 423.345 640.803 379.55 640.803 323.244C640.803 291.962 647.066 262.766 658.548 234.612C670.03 207.502 687.777 185.605 712.829 169.964C736.838 153.28 767.11 144.938 802.6 144.938C836.004 144.938 864.189 153.281 889.242 167.879C913.245 183.519 932.035 204.373 944.562 229.399C957.089 255.467 963.352 283.62 963.352 313.859C963.352 322.201 960.22 329.5 955.006 335.757C948.743 342.012 941.43 344.098 932.035 344.098H702.39C706.566 375.38 718.048 399.362 737.881 417.088C757.715 434.815 784.855 443.157 820.346 443.157C839.136 443.157 855.835 441.071 869.411 437.943C882.979 433.772 897.587 429.601 911.163 422.302C915.336 420.217 918.468 419.174 922.64 419.174C929.953 419.174 936.217 421.26 941.43 426.473C946.653 431.687 949.784 437.943 949.784 445.243C949.784 454.626 943.521 462.969 932.035 470.268C914.295 479.652 897.587 487.994 879.847 492.164C863.148 497.378 840.179 499.463 814.082 499.463C759.803 501.549 717.004 485.908 686.732 454.626ZM900.719 295.09C899.678 273.193 893.415 254.424 882.979 239.826C873.584 225.228 860.016 213.758 845.398 207.502C830.784 200.203 816.171 197.074 800.512 197.074C784.855 197.074 770.241 200.203 755.627 207.502C741.013 214.8 728.486 225.228 718.048 239.826C708.654 254.424 702.39 273.193 701.346 295.09H900.719Z" fill="white"/>
<path d="M1023.89 489.036C1017.63 482.78 1015.55 475.48 1015.55 467.139V31.2816C1015.55 22.9399 1018.68 15.6408 1023.89 9.38446C1030.16 3.12816 1037.47 0 1045.82 0C1055.21 0 1062.52 3.12816 1067.74 8.34177C1074 14.5981 1076.09 21.8972 1076.09 30.2389V467.139C1076.09 475.48 1072.96 482.78 1066.7 489.036C1060.43 495.292 1053.13 497.378 1044.77 497.378C1037.47 497.378 1030.16 494.25 1023.89 489.036Z" fill="white"/>
<path d="M1201.35 483.82C1183.61 472.35 1168.99 456.709 1159.59 435.855C1150.2 416.043 1144.99 393.103 1144.99 369.12V178.303C1144.99 169.96 1148.12 162.661 1154.38 156.405C1160.64 150.149 1167.95 148.063 1176.3 148.063C1184.65 148.063 1191.96 151.192 1198.22 156.405C1204.48 162.661 1206.57 169.96 1206.57 178.303V362.864C1206.57 418.128 1231.62 445.239 1280.69 445.239C1302.61 445.239 1323.48 438.983 1341.23 427.512C1358.97 416.043 1375.68 400.402 1391.34 380.59V178.303C1391.34 169.96 1394.47 162.661 1400.73 156.405C1406.99 150.149 1414.3 148.063 1422.65 148.063C1431 148.063 1438.3 151.192 1444.57 156.405C1450.83 162.661 1452.92 169.96 1452.92 178.303V467.136C1452.92 475.477 1449.79 482.777 1444.57 489.033C1438.3 495.289 1431 498.418 1422.65 498.418C1414.3 498.418 1406.99 495.289 1400.73 489.033C1394.47 482.777 1391.34 475.477 1391.34 467.136V440.025C1374.63 458.795 1355.84 473.393 1336.01 484.862C1316.18 496.332 1293.21 501.546 1266.07 501.546C1241.02 501.546 1220.14 495.289 1201.35 483.82Z" fill="white"/>
<path d="M1559.4 411.875V203.331H1511.37C1507.2 203.331 1505.11 202.288 1501.98 199.16C1499.9 197.074 1497.8 193.946 1497.8 189.775C1497.8 185.605 1499.9 181.433 1504.07 178.306L1595.93 88.631C1600.1 84.4604 1604.28 82.375 1607.41 82.375C1611.58 82.375 1613.68 83.4177 1616.81 86.546C1618.89 89.6743 1620.98 92.8025 1620.98 95.9308V150.152H1697.18C1704.48 150.152 1710.75 152.237 1715.97 157.451C1721.19 162.665 1723.27 168.921 1723.27 176.22C1723.27 183.519 1721.19 189.775 1715.97 194.989C1710.75 200.203 1704.48 203.331 1697.18 203.331H1620.98V406.661C1620.98 424.387 1625.15 434.814 1633.51 440.028C1641.86 444.199 1652.3 447.327 1664.82 447.327C1674.22 447.327 1682.57 446.285 1691.97 443.157C1694.05 443.157 1696.14 442.113 1698.22 442.113C1700.31 442.113 1702.4 441.071 1706.58 441.071C1712.84 441.071 1718.06 443.157 1723.27 448.37C1728.5 452.541 1730.59 458.797 1730.59 466.096C1730.59 476.523 1725.37 483.823 1714.93 490.079C1697.18 498.421 1678.39 501.549 1659.6 501.549C1591.75 501.549 1559.4 471.31 1559.4 411.875Z" fill="white"/>
<path d="M1790.09 454.626C1758.77 423.345 1744.15 379.55 1744.15 323.244C1744.15 291.962 1750.42 262.766 1761.9 234.612C1773.38 207.502 1791.13 185.605 1816.18 169.964C1840.19 153.28 1870.46 144.938 1905.95 144.938C1939.36 144.938 1967.54 153.281 1992.6 167.879C2016.6 183.519 2035.39 204.373 2047.92 229.399C2060.44 255.467 2066.71 283.62 2066.71 313.859C2066.71 322.201 2063.57 329.5 2058.36 335.757C2052.1 342.012 2044.78 344.098 2035.39 344.098H1805.75C1809.92 375.38 1821.4 399.362 1841.24 417.088C1861.07 434.815 1888.21 443.157 1923.7 443.157C1942.49 443.157 1959.19 441.071 1972.76 437.943C1986.33 433.772 2000.94 429.601 2014.52 422.302C2018.69 420.217 2021.82 419.174 2025.99 419.174C2033.31 419.174 2039.57 421.26 2044.78 426.473C2050.01 431.687 2053.14 437.943 2053.14 445.243C2053.14 454.626 2046.87 462.969 2035.39 470.268C2017.65 479.652 2000.94 487.994 1983.2 492.164C1966.5 497.378 1943.53 499.463 1917.44 499.463C1863.16 501.549 1820.35 485.908 1790.09 454.626ZM2004.07 295.09C2003.03 273.193 1996.77 254.424 1986.33 239.826C1976.94 225.228 1963.37 213.758 1948.75 207.502C1934.14 200.203 1919.53 197.074 1903.87 197.074C1888.21 197.074 1873.59 200.203 1858.98 207.502C1844.37 214.8 1831.84 225.228 1821.4 239.826C1812.01 254.424 1805.75 273.193 1804.7 295.09H2004.07Z" fill="white"/>
<path d="M2127.26 489.034C2120.99 482.777 2118.9 475.478 2118.9 467.136V179.345C2118.9 171.004 2122.03 163.705 2127.26 157.448C2133.52 151.192 2140.82 148.063 2149.17 148.063C2157.52 148.063 2164.83 151.192 2171.09 157.448C2177.35 163.705 2180.49 171.004 2180.49 179.345V208.542C2211.8 166.833 2247.3 145.979 2285.92 145.979H2289.05C2297.4 145.979 2304.71 149.107 2309.92 154.32C2316.19 160.576 2318.28 167.875 2318.28 176.218C2318.28 184.559 2315.15 191.858 2309.92 197.072C2303.66 202.285 2296.36 205.413 2288 205.413H2284.87C2262.96 205.413 2243.12 210.627 2225.38 221.055C2207.63 231.482 2191.97 246.08 2180.49 264.848V469.222C2180.49 477.563 2177.35 484.862 2171.09 491.119C2164.83 497.375 2157.52 499.461 2149.17 499.461C2140.82 497.375 2132.47 494.247 2127.26 489.034Z" fill="white"/>
<path d="M317.208 374.34C310.944 374.34 305.725 371.212 302.594 364.956C299.462 357.657 302.594 348.272 310.944 345.144C358.962 326.375 390.277 284.666 393.409 237.744C397.584 167.881 337.041 108.447 259.795 104.276C206.559 101.148 156.454 125.13 130.357 165.796C126.182 173.095 116.787 175.18 109.48 169.967C102.173 165.796 100.086 156.412 104.261 149.113C136.62 99.0618 197.164 69.8658 261.883 74.0367C356.874 79.2503 429.944 153.283 424.724 239.829C421.593 298.221 381.927 349.315 323.471 373.298C321.383 374.34 319.295 374.34 317.208 374.34Z" fill="white"/>
<path d="M277.54 469.229C186.725 469.229 110.523 404.58 106.347 321.163C103.216 256.514 144.97 196.037 209.689 171.011C218.04 167.883 226.391 172.054 229.523 179.353C232.654 186.652 228.479 196.037 221.172 199.165C167.935 220.019 134.531 269.027 136.619 321.163C139.751 391.025 205.514 444.204 283.803 441.076C327.645 438.99 368.355 419.179 393.408 386.854C398.627 380.598 408.022 378.513 415.329 383.726C421.592 388.94 423.68 398.325 418.461 404.58C387.145 444.204 339.128 468.187 285.89 471.315C282.76 468.187 280.672 469.229 277.54 469.229Z" fill="white"/>
<path d="M449.777 347.227C446.645 347.227 444.558 346.185 441.426 345.142C434.119 340.971 432.031 331.587 436.206 324.288C463.347 279.451 471.697 228.357 459.171 179.349C432.031 74.0345 313.031 10.4284 195.076 38.5819C113.655 58.3936 51.0237 115.743 30.1465 189.776C28.0588 198.118 19.708 202.289 11.3571 200.203C3.0063 198.118 -2.21297 189.776 0.918594 181.435C23.8834 98.0173 94.8658 31.2829 186.725 9.38571C321.383 -22.9386 457.083 50.0519 489.443 172.05C504.057 228.357 494.662 287.792 463.347 339.928C460.215 345.142 454.996 347.227 449.777 347.227Z" fill="white"/>
<path d="M282.761 537.004C174.2 537.004 76.0776 472.355 46.8496 373.296C31.1918 316.99 38.4988 257.554 68.7706 205.418C72.946 198.119 82.3407 196.034 89.6479 200.205C96.9548 204.376 100.086 213.76 95.9112 220.016C69.8144 264.854 62.5075 316.99 77.1214 364.955C108.437 470.269 228.48 530.747 346.436 498.423C426.813 476.525 487.356 417.091 506.146 343.057C508.234 334.716 516.585 330.545 524.935 331.587C533.287 333.673 538.505 342.015 536.418 349.314C515.541 433.774 446.647 501.551 354.787 526.576C330.778 534.918 306.77 537.004 282.761 537.004Z" fill="white"/>
</svg>
