<svg width="67" height="66" viewBox="0 0 67 66" fill="none" xmlns="http://www.w3.org/2000/svg">
<path d="M33.1001 0.50007C38.0001 0.50007 42.9 0.30007 47.8 0.50007C57.5 0.90007 64.4 6.60007 65.5 16.1001C66.7 27.3001 66.8 38.7001 65.4 50.0001C64.2 59.3001 57.7 64.9001 48.4 65.4001C38.3 66.0001 28.3 66.0001 18.2 65.4001C7.90004 64.8001 1.40005 57.9001 0.800049 47.5001C0.300049 37.8001 0.300049 28.1001 0.800049 18.3001C1.40005 7.70007 8.20004 0.90007 18.7 0.40007C23.5 0.30007 28.3001 0.50007 33.1001 0.50007ZM60.2 33.5001C60.3 28.2001 60.5 22.9001 59.8 17.5001C58.9 10.8001 55.1 7.00007 48.5 6.50007C38.6 5.70007 28.7 5.70007 18.8 6.50007C11.3 7.10007 7.50004 10.8001 6.90004 18.3001C6.10004 28.0001 6.20005 37.8001 6.80005 47.5001C7.30005 54.9001 11 58.9001 18.5 59.5001C28.6 60.3001 38.8 60.3001 48.9 59.5001C55.3 58.9001 59.2 54.7001 59.8 48.3001C60.3 43.3001 60.4 38.4001 60.2 33.5001Z" fill="white"/>
<path d="M32.9 49.6996C23.8 49.5996 16.4 41.9996 16.5 32.5996C16.6 23.5996 24.3 15.9996 33.3 16.0996C42.7 16.1996 50 23.2996 50.1 32.7996C50.2 42.3996 42.5 49.7996 32.9 49.6996ZM33.5 21.9996C27.4 21.8996 22.4 26.8996 22.4 32.9996C22.3 38.7996 27.4 43.7996 33.4 43.8996C39.3 43.8996 44.2 38.9996 44.2 32.8996C44.2 26.9996 39.3 22.0996 33.5 21.9996Z" fill="white"/>
<path d="M54.6999 15.3001C54.6999 17.3001 52.9999 19.2001 50.9999 19.3001C48.8999 19.4001 46.8999 17.6001 46.8999 15.5001C46.8999 13.4001 48.5999 11.6001 50.5999 11.5001C52.6999 11.4001 54.5999 13.2001 54.6999 15.3001Z" fill="white"/>
</svg>
