<svg width="67" height="66" viewBox="0 0 67 66" fill="none" xmlns="http://www.w3.org/2000/svg">
<path d="M65.9999 33.2C65.9999 42.1 65.9999 51 65.9999 59.9C65.9999 64 64.3999 65.6 60.2999 65.6C42.1999 65.6 23.9999 65.6 5.8999 65.6C2.0999 65.6 0.399902 63.7 0.399902 59.5C0.399902 48.3 0.399902 37 0.399902 25.8C0.399902 19.4 0.399902 13 0.399902 6.6C0.399902 1.8 2.19991 0 6.99991 0C24.4999 0 41.9999 0 59.4999 0C64.5999 0 66.0999 1.5 66.0999 6.7C65.9999 15.6 65.9999 24.4 65.9999 33.2ZM35.8999 29.1C35.5999 25 35.5999 25 31.6999 25C30.5999 25 29.4999 25.1 28.4999 25C26.6999 24.8 26.2999 25.6 26.2999 27.3C26.3999 35 26.2999 42.8 26.2999 50.5C26.2999 56.4 26.2999 56.4 32.2999 56.4C36.0999 56.4 36.0999 56.4 36.1999 52.6C36.1999 47.8 36.0999 42.9 36.3999 38.1C36.5999 34.6 38.7999 32.8 42.0999 32.9C45.0999 33 46.5999 34.4 46.8999 38.1C47.0999 41.7 46.9999 45.2 47.0999 48.8C47.1999 51.3 45.9999 54.6 47.5999 56C49.0999 57.2 52.3999 56.3 54.8999 56.4C56.3999 56.5 56.8999 56.1 56.8999 54.5C56.7999 49.3 56.8999 44 56.7999 38.8C56.7999 36 56.4999 33.2 55.5999 30.5C52.7999 22.7 39.9999 22.4 35.8999 29.1ZM10.4999 40.6C10.4999 45.2 10.4999 49.7 10.4999 54.3C10.4999 55.8 10.7999 56.6 12.5999 56.4C14.4999 56.2 16.3999 56.2 18.2999 56.4C19.9999 56.5 20.2999 55.9 20.2999 54.3C20.1999 47.1 20.2999 40 20.1999 32.8C20.1999 30.3 21.2999 26.8 19.6999 25.4C18.1999 24.1 14.7999 25.1 12.1999 24.9C10.7999 24.8 10.3999 25.3 10.3999 26.7C10.5999 31.4 10.4999 36 10.4999 40.6ZM20.9999 15.2C20.8999 12 18.2999 9.4 15.2999 9.5C12.3999 9.6 9.6999 12.4 9.7999 15.2C9.8999 18.1 12.7999 20.9 15.4999 20.8C18.3999 20.7 21.0999 18 20.9999 15.2Z" fill="white"/>
</svg>
