<svg width="66" height="66" viewBox="0 0 66 66" fill="none" xmlns="http://www.w3.org/2000/svg">
<path d="M65.9999 33.2C65.9999 43.2 65.9999 53.2 65.9999 63.2C65.9999 65.1 65.6999 65.8 63.5999 65.8C43.2999 65.7 22.8999 65.7 2.59995 65.8C0.799945 65.8 0.199951 65.4 0.199951 63.5C0.299951 43.2 0.299951 22.8 0.199951 2.5C0.199951 0.5 0.799951 0 2.69995 0C22.9 0.1 43.2 0.1 63.4 0C65.3 0 65.9 0.5 65.9 2.5C66 12.7 65.9999 23 65.9999 33.2ZM10.8999 15C11.8999 16.3 12.5 17.1 13.2 17.8C15.6 20.1 16.5 22.7 16.2 26.1C15.9 29.2 15.9 32.4 16.2 35.6C16.7 40.5 15.7 44.8 11.7 48.1C11.5 48.3 11.1999 48.6 11.0999 48.9C10.7999 49.5 10.8999 50 11.7999 50C15.7999 50 19.7999 50 24.0999 50C22.9999 47.7 21.3999 46.3 20.0999 44.7C19.4999 43.8 18.5999 43.2 18.5999 41.9C18.5999 36.6 18.5999 31.3 18.5999 26C19.1999 26.3 19.3999 26.7 19.5999 27.1C22.8999 34.2 26.1999 41.4 29.4999 48.5C29.7999 49.1 29.9 50 30.9 49.9C31.8 49.8 31.7999 49 31.9999 48.4C33.4999 44.7 34.9 41 36.4 37.3C37.8 33.7 39.2999 30 40.7999 26.4C41.3999 31.1 41.2 35.8 41.4 40.4C41.5 43.6 41.2999 46.5 38.2999 48.5C37.8999 48.7 37.3999 49.1 37.5999 49.7C37.7999 50.3 38.5 50 38.9 50C43.6 50 48.2 50 52.9 50C53.4 50 54.1999 50.3 54.4999 49.7C54.8999 48.9 54.0999 48.4 53.5999 48.1C50.8999 46.5 50.7 44 50.7 41.2C50.8 35.8 50.9 30.4 50.7 25C50.5 21.4 50.8999 18.2 54.2999 16.2C54.5999 16 54.7999 15.7 54.4999 15C51.2999 15 47.8999 15.1 44.5999 15C42.9999 14.9 42.2999 15.6 41.7999 17C39.2999 23.5 36.6 29.9 33.9 36.7C30.8 29.9 27.9 23.5 24.9 17C24.5 16.1 24.2999 15 22.7999 15C19.1999 15 15.3999 15 10.8999 15Z" fill="white"/>
</svg>
