<svg width="38" height="19" viewBox="0 0 38 19" fill="none" xmlns="http://www.w3.org/2000/svg">
<path d="M34.2473 15.3704C34.2543 16.4688 34.2614 17.5742 34.2684 18.6726C34.2684 18.912 34.1065 18.8557 33.9797 18.8557C32.6631 18.8557 31.3535 18.8557 30.0368 18.8557C28.4667 18.8557 26.8966 18.8627 25.3264 18.8557C21.5173 18.8416 18.5319 15.8492 18.5249 12.033C18.5249 9.31517 18.5249 6.59033 18.5178 3.87252C18.5178 3.61201 18.5601 3.50639 18.8558 3.51343C19.8767 3.53456 20.8977 3.52047 21.9186 3.52047C22.0101 3.52047 22.1017 3.5416 22.1932 3.54864C22.3129 3.65425 22.2495 3.78803 22.2495 3.90773C22.2566 6.59737 22.2495 9.27997 22.2566 11.9696C22.2566 12.1738 22.2495 12.378 22.3199 12.6174C25.4109 9.58273 28.4596 6.57625 31.5647 3.52752C31.4168 3.52047 31.3605 3.51343 31.3042 3.51343C28.3681 3.51343 25.4391 3.51343 22.503 3.51343C22.3974 3.51343 22.2918 3.53456 22.1932 3.54864C22.2918 3.43598 22.2495 3.3022 22.2495 3.17547C22.2495 2.21086 22.2636 1.25329 22.2425 0.288679C22.2425 0.0563276 22.3199 0 22.5593 0C25.5236 0.00704095 28.4948 -0.00704095 31.4591 0.00704095C35.0007 0.0281638 37.979 3.02057 37.9931 6.56216C38.0072 9.37854 37.9931 12.1949 38.0001 15.0043C38.0001 15.2648 37.9438 15.3422 37.6762 15.3352C36.6553 15.3211 35.6344 15.3281 34.6134 15.3281C34.4867 15.3281 34.3529 15.2929 34.2332 15.3704C34.2403 15.2648 34.2614 15.1592 34.2614 15.0535C34.2614 12.2724 34.2614 9.4912 34.2614 6.71002C34.2614 6.63257 34.2966 6.54808 34.191 6.45655C31.2056 9.39263 28.2273 12.3217 25.1715 15.3211C25.3968 15.3211 25.5095 15.3211 25.6221 15.3211C28.3681 15.3211 31.1141 15.3211 33.86 15.3211C33.9938 15.3352 34.1276 15.3 34.2473 15.3704Z" fill="white"/>
<path d="M0 3.52047C0.161942 3.52047 0.260515 3.52047 0.366129 3.52047C1.89402 3.52047 3.41486 3.52751 4.94275 3.51343C5.1751 3.51343 5.33 3.58384 5.4849 3.75986C7.82249 6.38613 10.1671 9.01241 12.5118 11.6387C12.6385 11.7795 12.7582 11.9133 12.892 12.0611C13.0046 11.9414 12.9553 11.8006 12.9553 11.688C12.9624 9.08282 12.9624 6.47767 12.9553 3.87252C12.9553 3.60496 13.0117 3.51343 13.3004 3.52047C14.4058 3.54159 15.5042 3.53455 16.6096 3.52047C16.8349 3.52047 16.9053 3.56976 16.9053 3.80915C16.8983 8.13933 16.9053 12.4695 16.8983 16.7927C16.8983 17.708 16.342 18.4754 15.4971 18.7923C14.61 19.1232 13.7369 18.9049 13.075 18.1656C11.1247 15.99 9.1814 13.8073 7.2381 11.6316C4.90754 9.02649 2.57699 6.4143 0.253474 3.80915C0.168983 3.7317 0.105614 3.65425 0 3.52047Z" fill="white"/>
</svg>
