<svg width="68" height="62" viewBox="0 0 68 62" fill="none" xmlns="http://www.w3.org/2000/svg">
<path d="M67.1 61.5004C60.3 61.5004 54 61.5004 47.7 61.5004C46.5 61.5004 45.9 60.9004 45.3 60.1004C40.6 54.0004 35.9 48.0004 31.3 41.9004C30.1 40.3004 29.6 40.5004 28.4 41.8004C23.3 47.7004 18.1 53.6004 13.1 59.5004C11.9 61.0004 10.6 61.7004 8.7 61.6004C6.3 61.4004 3.9 61.6004 1 61.6004C2.5 59.8004 3.7 58.3004 5 56.8004C11.3 49.6004 17.6 42.4004 24 35.3004C25.2 33.9004 24.5 33.2004 23.7 32.1004C15.9 21.8004 8.1 11.5004 0.2 1.2004C0.1 1.1004 0.1 0.900395 0 0.500395C6.8 0.500395 13.5 0.500395 20.2 0.500395C21.4 0.500395 21.8 1.5004 22.4 2.3004C26.5 7.7004 30.6 13.0004 34.5 18.4004C35.5 19.8004 36 19.9004 37.1 18.5004C42 12.7004 47 7.0004 51.9 1.3004C52.4 0.700395 53 0.400395 53.9 0.500395C56.8 0.500395 59.7 0.500395 63.1 0.500395C59.2 5.0004 55.6 9.1004 52 13.3004C48.5 17.3004 45 21.3004 41.5 25.3004C40.5 26.4004 40.9 26.9004 41.6 27.8004C49.1 37.7004 56.6 47.7004 64.2 57.6004C65 58.7004 65.9 59.9004 67.1 61.5004ZM12.3 6.5004C12.2 7.4004 12.9 7.8004 13.3 8.2004C24.3 22.7004 35.5 37.0004 46.4 51.6004C48.7 54.6004 50.9 55.9004 54.4 54.9004C54.6 54.5004 54.2 54.3004 54.1 54.1004C42.7 39.3004 31.4 24.4004 20.3 9.4004C18 6.2004 15.5 6.1004 12.3 6.5004Z" fill="white"/>
</svg>
